PathFileType	4	(X/Y/Z)	 s08c0303.trc
DataRate	CameraRate	NumFrames	NumMarkers	Units	OrigDataRate	OrigDataStartFrame	OrigNumFrames
200	200	5	50	mm	200	1001	2000
Frame#	Time	racr			lacr			c7			jug			rlel			rdr			llel			ldr			s2			lic			ric			lasi			rasi			rpsi			lpsi			rgt			lgt			rth1			rth2			rth3			rth4			rlfc			rmfc			rsh1			rsh2			rsh3			rsh4			rlmal			rmmal			rcal			rtoe			rmt5			lth1			lth2			lth4			lth3			llfc			lmfc			llmal			lmmal			lcal			lmt5			lsh1			lsh2			lsh3			lsh4			ltoe			SBIKE			LBIKE			RBIKE			
		X1	Y1	Z1	X2	Y2	Z2	X3	Y3	Z3	X4	Y4	Z4	X5	Y5	Z5	X6	Y6	Z6	X7	Y7	Z7	X8	Y8	Z8	X9	Y9	Z9	X10	Y10	Z10	X11	Y11	Z11	X12	Y12	Z12	X13	Y13	Z13	X14	Y14	Z14	X15	Y15	Z15	X16	Y16	Z16	X17	Y17	Z17	X18	Y18	Z18	X19	Y19	Z19	X20	Y20	Z20	X21	Y21	Z21	X22	Y22	Z22	X23	Y23	Z23	X24	Y24	Z24	X25	Y25	Z25	X26	Y26	Z26	X27	Y27	Z27	X28	Y28	Z28	X29	Y29	Z29	X30	Y30	Z30	X31	Y31	Z31	X32	Y32	Z32	X33	Y33	Z33	X34	Y34	Z34	X35	Y35	Z35	X36	Y36	Z36	X37	Y37	Z37	X38	Y38	Z38	X39	Y39	Z39	X40	Y40	Z40	X41	Y41	Z41	X42	Y42	Z42	X43	Y43	Z43	X44	Y44	Z44	X45	Y45	Z45	X46	Y46	Z46	X47	Y47	Z47	X48	Y48	Z48	X49	Y49	Z49	X50	Y50	Z50	
1001	5.0050	823.802446	1320.652957	-3.521061	833.517148	1358.368513	-322.930070	814.568906	1395.549043	-155.210733	760.701049	1245.181284	-175.618219	645.624983	1104.648374	97.332409	774.828122	899.392799	-33.718776	709.189097	1144.695910	-475.328365	791.979364	887.424746	-413.250027	239.737435	1269.764200	-261.350066	428.092649	1238.379860	-367.314713	356.637774	1242.103646	-60.908759	425.711822	1179.948895	-329.496898	383.814566	1186.774544	-102.870879	267.151096	1302.766067	-201.794470	288.259648	1308.318725	-296.761184	265.036403	1147.563806	-55.379935	357.648392	1128.802467	-420.725965	363.962076	1000.533918	-33.572085	429.605452	941.239777	-26.041157	457.183889	858.994735	-32.030970	460.699887	961.300549	-27.351719	519.739204	754.826643	-39.572233	515.550859	744.760789	-151.882170	441.455109	645.783566	-19.165782	430.953415	558.144391	-38.725965	378.397204	490.561050	-49.395438	460.671856	551.196327	-65.249606	326.281087	382.922777	-64.135595	350.473183	403.282724	-149.806480	244.140555	366.615197	-112.497377	537.497071	312.698743	-97.334182	441.271908	293.011110	-35.478963	406.466206	1003.248059	-413.471872	454.512178	931.569152	-399.756815	483.324518	942.903899	-380.894618	462.709759	842.990695	-401.830519	463.457900	714.537285	-387.321236	443.460563	688.602395	-278.747105	114.212917	476.840299	-408.047218	145.734825	466.593854	-322.219264	64.351181	515.343052	-365.260860	118.278841	305.800261	-416.863884	360.632126	636.124002	-416.814735	303.432679	574.405950	-403.267951	220.804975	543.148212	-408.924407	316.031021	558.016541	-368.342648	184.716807	252.189272	-345.583481	-201.538012	921.020569	-222.422983	-10.013490	83.497487	-426.408021	-12.254355	80.070474	-28.061394	
1002	5.0100	825.947619	1319.077825	-4.866122	832.915345	1359.678701	-325.080116	815.055968	1396.106523	-156.504439	761.417629	1245.702290	-177.228365	647.918993	1104.536276	98.832973	774.951288	898.739922	-32.866356	709.649753	1145.172679	-476.676798	792.478863	886.899500	-413.856271	239.225673	1267.581365	-259.518745	427.659068	1238.374233	-366.199411	357.786362	1237.808659	-59.859777	425.646363	1179.592747	-328.429622	384.878064	1183.738744	-101.384751	267.141323	1300.136217	-199.612649	287.571071	1306.799766	-294.006677	265.179643	1143.218280	-55.408913	358.509554	1128.774577	-420.182631	362.114215	994.850802	-33.935918	426.039341	934.493382	-25.853398	453.699393	851.727088	-33.365279	458.106395	953.723568	-27.671075	514.302001	746.913945	-40.993652	509.267626	737.040477	-153.609261	437.222887	636.848053	-20.241992	428.084807	548.957660	-39.175968	376.341217	480.752204	-49.673399	458.145326	542.619014	-65.242127	325.057008	372.259461	-63.859553	349.183241	392.747485	-149.659177	242.981056	356.420093	-112.286969	536.390725	302.089088	-96.038597	439.887680	281.837364	-35.520415	409.197160	1003.469605	-412.741844	458.435077	932.910783	-398.595339	486.458577	944.707653	-378.862312	468.723474	844.667025	-401.244405	471.112011	717.024715	-385.603185	450.612022	691.019019	-277.217764	116.919198	487.389489	-407.664202	148.346288	476.462886	-321.723976	67.001111	526.116274	-365.153604	119.976492	316.504688	-416.737033	367.349006	640.704720	-415.195966	308.873197	581.732469	-403.769255	225.043767	551.133810	-408.077870	319.928794	562.646483	-365.636723	186.096872	262.459667	-345.498279	-201.149269	921.091379	-221.711468	-9.975698	83.506404	-426.372835	-12.237791	80.023458	-28.008174	
1003	5.0150	827.917816	1317.931384	-7.043772	832.269080	1361.167080	-327.697981	815.492996	1397.098143	-158.033913	761.804650	1246.739912	-178.944760	650.376936	1104.966921	100.536570	775.194460	898.182348	-31.916632	709.893133	1145.601349	-477.992520	792.086027	886.581078	-414.220436	238.972573	1265.754297	-257.144671	426.906868	1238.562972	-364.978803	359.389004	1233.663866	-58.495746	425.532167	1179.333421	-327.438919	386.125419	1180.532727	-99.839040	266.971899	1297.657972	-196.651096	286.932605	1305.434202	-291.179335	266.003261	1138.994654	-54.530867	358.928141	1128.989113	-419.613022	360.419331	988.970930	-34.328219	423.614678	927.085052	-27.334330	448.822081	844.137920	-34.820862	455.425914	946.091963	-28.767988	508.837761	739.263353	-42.619581	503.283687	728.825995	-155.171341	432.783099	628.112130	-21.200627	424.711950	540.202027	-39.845621	373.886439	471.148043	-50.122292	455.176057	533.293724	-66.909877	323.354506	362.062746	-63.605737	347.731083	383.052531	-149.003440	241.281402	346.543691	-112.103333	534.189787	289.054399	-97.708592	437.811184	270.913623	-35.586462	411.817979	1004.072151	-412.565236	462.382020	934.543877	-397.500780	489.707357	946.970987	-376.965947	474.887229	846.520762	-400.416261	478.939329	719.811839	-383.666201	457.841241	693.731020	-275.632110	120.018954	497.926280	-407.136598	151.413162	486.316688	-321.213440	70.035465	536.941351	-364.773422	122.449929	327.136032	-416.609425	374.035542	645.540699	-413.556604	314.035517	587.635757	-402.226551	229.750103	559.118481	-407.088530	324.518094	568.267930	-363.976785	188.400621	272.948628	-345.384433	-201.138779	921.235334	-221.386446	-9.962272	83.521833	-426.286090	-12.219872	80.001146	-27.959726	
1004	5.0200	830.033153	1317.617237	-9.259909	831.305553	1362.797554	-330.427838	815.800586	1398.466017	-159.759479	762.270428	1248.036207	-180.544335	654.212042	1105.461998	101.844991	775.607494	897.621752	-30.898173	708.936466	1146.348176	-480.539800	792.066078	886.176756	-413.940682	238.580331	1264.269088	-253.681503	425.979214	1238.696482	-363.804710	361.458667	1229.643436	-56.987902	425.260338	1179.143842	-326.617644	387.563737	1177.159810	-98.246207	266.979374	1295.060003	-193.272065	286.245899	1304.065002	-287.784633	267.009470	1134.482617	-53.772141	359.008931	1129.390742	-418.746922	358.876158	983.031219	-34.671573	420.525570	919.942106	-28.080482	444.466145	836.530429	-36.473557	453.089084	938.362213	-28.913661	502.819417	731.107513	-44.526454	496.853322	720.681170	-156.427294	427.979142	619.445382	-22.119663	420.861212	531.137285	-40.947682	370.770424	461.787933	-50.578105	451.311898	525.169896	-67.155980	321.076343	352.163141	-63.272764	NaN	NaN	NaN	239.063443	337.105215	-111.879045	531.575254	277.710082	-97.951311	435.159835	260.020849	-35.732996	414.347511	1004.844066	-412.391426	466.359620	936.617981	-396.368702	493.062874	949.644456	-375.430526	480.979223	848.794724	-398.937687	487.003295	723.054699	-381.643190	465.139088	696.741676	-274.016612	123.635657	508.378842	-406.371304	154.939981	496.243988	-320.486868	73.387718	547.512786	-364.306932	125.455399	337.702354	-416.432061	381.060495	650.327741	-411.773591	329.076871	599.932919	-409.942427	234.808103	567.129478	-405.839817	329.302139	574.148974	-362.067774	191.300706	283.346554	-345.127221	-201.001855	921.172084	-221.052225	-9.966493	83.616374	-426.183210	-12.194304	80.011460	-27.875409	
1005	5.0250	832.219352	1317.803700	-11.707840	830.106484	1364.754449	-333.750894	816.015051	1400.175702	-161.717248	762.721398	1249.644906	-182.361876	657.768458	1106.615337	103.225263	776.053696	897.093374	-30.115890	708.785161	1146.562950	-482.103883	792.078270	886.155031	-414.016821	238.693061	1262.320182	-251.042986	424.762982	1239.291122	-362.490874	363.810376	1225.534113	-55.515404	424.736638	1178.927739	-325.718125	389.200120	1173.623312	-96.618711	267.160311	1292.214374	-189.496023	285.479627	1302.670221	-283.993655	268.288665	1129.656817	-53.115571	358.734182	1130.084460	-417.820038	357.466349	976.948939	-35.239201	418.275707	912.856576	-28.777868	439.919279	828.874013	-37.944399	450.582711	930.623423	-29.275948	496.989389	722.907274	-46.326801	490.389348	712.568830	-158.117053	422.833369	610.898323	-23.184720	416.435656	522.350336	-41.117004	367.231338	452.534956	-50.969816	447.081656	516.924129	-67.840462	318.343850	342.537494	-62.777125	NaN	NaN	NaN	236.272327	328.039762	-111.414180	528.300350	266.444827	-98.205032	431.902292	249.364348	-35.810753	416.913565	1005.841456	-412.279918	470.327255	939.013191	-395.190640	496.117384	952.757592	-374.079308	487.106386	851.444697	-397.146219	495.056389	726.547696	-379.644651	472.482122	700.055703	-272.403090	127.608268	518.716215	-405.619690	158.873888	506.064840	-319.652979	76.997225	557.785348	-363.402037	129.066737	348.648140	-416.214990	388.180030	655.407865	-409.886863	341.890851	610.463150	-415.723134	240.496954	576.494391	-406.648599	334.663792	580.350866	-360.406331	195.031879	293.758678	-344.961507	-200.942261	921.182514	-220.824555	-9.943775	83.674026	-426.135771	-12.181648	80.043229	-27.803148	
